<svg width="89" height="31" viewBox="0 0 89 31" fill="none" xmlns="http://www.w3.org/2000/svg">
<path d="M16.9805 15.9769C16.9805 14.6992 17.7425 13.8091 18.907 13.8091C20.0715 13.8091 20.8335 14.6992 20.8335 15.9769C20.8335 17.2404 20.0715 18.1448 18.907 18.1448C17.7425 18.1448 16.9805 17.2404 16.9805 15.9769Z" fill="#2B2B2B"/>
<path d="M26.8292 13.752C25.7222 13.752 24.9746 14.6133 24.9746 15.7906C24.9746 16.9822 25.7366 17.8723 26.8292 17.8723C28.0369 17.8723 28.842 16.9678 28.842 15.7906C28.842 14.6277 28.0369 13.752 26.8292 13.752Z" fill="#2B2B2B"/>
<path d="M33.2461 15.9769C33.2461 14.6992 34.0081 13.8091 35.1726 13.8091C36.3372 13.8091 37.0991 14.6992 37.0991 15.9769C37.0991 17.2404 36.3372 18.1448 35.1726 18.1448C34.0081 18.1448 33.2461 17.2404 33.2461 15.9769Z" fill="#2B2B2B"/>
<path d="M44.9629 15.9916C44.9629 14.7138 45.7392 13.8237 46.9613 13.8237C48.1833 13.8237 48.9165 14.7282 48.9165 15.9916C48.9165 17.255 48.1833 18.1451 46.9613 18.1451C45.7392 18.1451 44.9629 17.2693 44.9629 15.9916Z" fill="#2B2B2B"/>
<path fill-rule="evenodd" clip-rule="evenodd" d="M44.2307 30.9969C68.6585 30.9969 88.4612 24.058 88.4612 15.4985C88.4612 6.93886 68.6585 0 44.2307 0C19.8028 0 0 6.93886 0 15.4985C0 24.058 19.8028 30.9969 44.2307 30.9969ZM14.1386 19.5376V8.85625H12.3846V19.5376H14.1386ZM15.2121 15.9772C15.2121 18.1594 16.6786 19.7099 18.907 19.7099C21.1354 19.7099 22.6018 18.1594 22.6018 15.9772C22.6018 13.7949 21.1354 12.2444 18.907 12.2444C16.6786 12.2444 15.2121 13.7949 15.2121 15.9772ZM26.5272 19.3941C24.5288 19.3941 23.1917 17.901 23.1917 15.8336C23.1917 13.7519 24.5576 12.2157 26.5847 12.2157C27.6342 12.2157 28.5256 12.6608 28.9569 13.4074L29.0575 12.4454H30.6103V19.1787C30.6103 21.5189 29.1438 23.0263 26.8435 23.0263C24.8882 23.0263 23.4649 21.8204 23.2349 19.9683H25.0033C25.1039 20.9015 25.8515 21.4327 26.9441 21.4327C28.1662 21.4327 28.8994 20.6575 28.8994 19.4945V18.2886C28.4537 18.9777 27.5624 19.3941 26.5272 19.3941ZM31.4783 15.9772C31.4783 18.1594 32.9447 19.7099 35.1732 19.7099C37.4016 19.7099 38.868 18.1594 38.868 15.9772C38.868 13.7949 37.4016 12.2444 35.1732 12.2444C32.9447 12.2444 31.4783 13.7949 31.4783 15.9772ZM41.8157 9.94739C41.8157 10.536 41.3413 10.9954 40.7662 10.9954C40.1768 10.9954 39.7311 10.536 39.7311 9.94739C39.7311 9.37308 40.1768 8.91366 40.7662 8.91366C41.3413 8.91366 41.8157 9.37308 41.8157 9.94739ZM41.6432 12.4454V19.5376H39.8893V12.4454H41.6432ZM43.1799 22.8253H44.8907V18.5614C45.3364 19.2936 46.2996 19.7242 47.3636 19.7242C49.4626 19.7242 50.7134 18.1163 50.6846 15.9054C50.6415 13.6801 49.3619 12.2301 47.3492 12.2301C46.2709 12.2301 45.2933 12.7039 44.862 13.5222L44.7613 12.4454H43.1799V22.8253ZM53.9766 19.7242C52.2801 19.7242 51.1875 18.8198 51.13 17.4128H52.7258C52.7258 18.0302 53.1715 18.3891 53.9478 18.3891C54.5948 18.3891 55.1268 18.1307 55.1268 17.5708C55.1268 17.1688 54.8392 16.9534 54.3791 16.8242L53.1428 16.5084C51.7769 16.1495 51.245 15.3885 51.245 14.4697C51.245 13.1202 52.3808 12.2301 53.9047 12.2301C55.443 12.2301 56.4926 13.1202 56.5501 14.5272H54.9543C54.9543 13.9098 54.5229 13.5365 53.8616 13.5365C53.229 13.5365 52.8408 13.8811 52.8408 14.3692C52.8408 14.8287 53.2002 15.0153 53.7322 15.1588L54.983 15.4603C56.1476 15.7474 56.7801 16.4366 56.7801 17.4559C56.7801 18.8341 55.6443 19.7242 53.9766 19.7242ZM60.4184 19.7242C61.3813 19.7242 62.3013 19.2792 62.7184 18.6188L62.8337 19.5376H64.4725V12.4454H62.7184V16.1638C62.7184 17.4416 62.2296 18.1594 61.0796 18.1594C60.1884 18.1594 59.5701 17.7287 59.5701 16.2643V12.4454H57.816V16.8816C57.816 18.5758 58.7361 19.7242 60.4184 19.7242ZM67.7747 15.4603V19.5376H66.0206V12.4454H67.6306L67.7171 13.2494C68.1341 12.6177 68.8818 12.2301 69.7153 12.2301C70.8941 12.2301 71.6706 12.7469 72.0588 13.5796C72.4042 12.7469 73.2524 12.2301 74.3306 12.2301C76.0559 12.2301 76.9612 13.2638 76.9612 14.9004V19.5376H75.2647V15.3024C75.2647 14.2975 74.7189 13.7663 73.8706 13.7663C73.0365 13.7663 72.3753 14.3118 72.3753 15.4747V19.5376H70.6641V15.3024C70.6641 14.2975 70.1183 13.7663 69.2841 13.7663C68.4506 13.7663 67.7747 14.3118 67.7747 15.4603Z" fill="#2B2B2B"/>
</svg>
