<svg width="40" height="40" viewBox="0 0 40 40" fill="none" xmlns="http://www.w3.org/2000/svg">
<g clip-path="url(#clip0_371_261)">
<path d="M0 20V40H40V0H0V20ZM11.6089 8.64444C12.3467 8.77333 12.7289 8.84889 12.9556 8.90667C13.44 9.04 13.7156 9.12444 13.8578 9.18222C13.9378 9.21778 14.0311 9.24444 14.0667 9.24444C14.1022 9.24444 14.1956 9.27111 14.2756 9.30667C14.3556 9.34222 14.5956 9.44444 14.8089 9.52889C15.2756 9.72444 16.0667 10.1244 16.3378 10.3111C16.4489 10.3822 16.5467 10.4444 16.5556 10.4444C16.5778 10.4444 17.3378 10.9911 17.5022 11.1244C17.6533 11.2489 19.3689 12.9644 19.6667 13.2889C20.52 14.2178 21.5644 15.5022 22.7689 17.1022C22.8356 17.1911 22.92 17.2978 22.9511 17.3422C22.9867 17.3822 23.4756 18.0311 24.0444 18.7867C24.6089 19.5378 25.1022 20.16 25.1378 20.1689C25.1911 20.1822 25.2 19.64 25.2 16.3422C25.2 13.1333 25.2089 12.4933 25.2622 12.4489C25.3022 12.4133 25.6267 12.4 26.3378 12.4089L27.3556 12.4222L27.3778 20.1911C27.3911 24.4667 27.3822 27.9733 27.3644 27.9867C27.3467 28 27.2756 27.9733 27.2089 27.9289C27.0533 27.8311 25.8711 26.6444 25.5511 26.2711C25.4178 26.1156 25.28 25.9556 25.2444 25.9156C25.2044 25.8756 25.0978 25.7422 25 25.6222C24.9022 25.4978 24.8133 25.3911 24.8 25.3778C24.7733 25.3556 24.3378 24.8 24.0756 24.4533C24.0089 24.3644 23.9289 24.2578 23.8978 24.2222C23.8267 24.1378 23.6178 23.8489 22.8844 22.84C22.68 22.5556 22.2933 22.0178 22.0222 21.6444C21.5467 20.9822 19.3644 18.0489 19.2267 17.8844C19.1911 17.8356 19.1022 17.7244 19.0356 17.6356C18.6889 17.1822 17.5644 15.72 17.3644 15.4667C15.2533 12.7956 14.6622 12.1689 13.2667 11.1244C12.4978 10.5511 11.7333 10.1067 11.0667 9.84444C10.88 9.77333 10.7822 9.73778 10.4 9.6C10.3156 9.57333 10.16 9.52889 10.0533 9.50667C9.95111 9.48444 9.82667 9.44889 9.78222 9.42222C9.73333 9.4 9.63556 9.37778 9.56 9.37778C9.48889 9.37778 9.37333 9.35556 9.30222 9.32889C9.23556 9.30222 9.00889 9.26222 8.8 9.24C7.68 9.12 7.48 9.10667 7.02222 9.15556C6.08444 9.25333 5.89778 9.26222 5.92 9.2C5.94667 9.11556 6.59111 8.91556 7.24444 8.78222C8 8.63111 8.17778 8.60444 8.6 8.57333C9.32 8.52 11.1422 8.56444 11.6089 8.64444ZM13.4222 12.84C13.8044 13.2222 14.2267 13.6622 14.36 13.8178C14.4933 13.9733 14.6311 14.1333 14.6667 14.1733C14.7067 14.2133 14.8133 14.3422 14.9111 14.4667C15.0089 14.5867 15.0978 14.6978 15.1111 14.7111C15.1378 14.7333 15.5733 15.2889 15.8356 15.6356C15.9022 15.7244 15.9911 15.84 16.0311 15.8889C16.0756 15.9378 16.1911 16.0978 16.2978 16.2444C16.4 16.3911 16.6267 16.7022 16.7956 16.9333C16.9689 17.1644 17.2 17.4844 17.3067 17.6444C17.4133 17.8044 17.6444 18.1244 17.8178 18.3556C17.9911 18.5867 18.1778 18.8489 18.24 18.9333C18.4311 19.2089 20.6356 22.1556 20.6667 22.1778C20.68 22.1911 20.76 22.2889 20.8356 22.4C20.9644 22.5778 21.1822 22.8578 21.3511 23.0711C21.3822 23.1111 21.6222 23.4178 21.88 23.76C23.7822 26.2489 24.8311 27.4622 25.8 28.2978C26.1111 28.5644 27.1778 29.3778 27.2178 29.3778C27.2267 29.3778 27.36 29.4578 27.5022 29.5556C27.7778 29.7378 28.5378 30.1422 28.6933 30.1911C28.7378 30.2044 28.8889 30.2578 29.0222 30.3111C29.1556 30.3644 29.3289 30.4222 29.4 30.4444C29.4756 30.4667 29.5956 30.5022 29.6667 30.5289C30.7022 30.8844 32.3244 31.0178 33.6356 30.8533C33.9156 30.8178 34.0622 30.8489 33.9778 30.9244C33.9244 30.9644 33.5956 31.0756 33.2222 31.1689C32.6089 31.3244 32.4978 31.3467 32.2667 31.3778C32.1333 31.3956 31.9022 31.4356 31.7556 31.4667C31.3289 31.56 28.9511 31.5511 28.3556 31.4533C27.4089 31.2933 26.4311 31.0622 26.0533 30.9067C25.9733 30.8711 25.88 30.8444 25.8444 30.8444C25.8089 30.8444 25.7067 30.8133 25.6133 30.7733C25.2178 30.6044 25.1244 30.5644 25 30.5111C24.8267 30.44 23.96 30.0133 23.8444 29.9422C23.7956 29.9111 23.6711 29.8356 23.5644 29.7644C23.4578 29.6978 23.3644 29.6444 23.3556 29.6444C23.3333 29.6444 22.5733 29.0978 22.4089 28.9644C22.2622 28.8444 20.5511 27.1333 20.2444 26.8C19.4044 25.8889 18.3511 24.5911 17.1422 22.9867C17.0756 22.8978 16.9911 22.7911 16.96 22.7467C16.9244 22.7067 16.4356 22.0578 15.8667 21.3022C15.24 20.4711 14.8089 19.9333 14.7644 19.9333C14.6933 19.9333 14.6889 20.2311 14.68 23.7556C14.6756 25.8533 14.6578 27.6 14.6489 27.6311C14.6178 27.7111 12.6222 27.7156 12.5422 27.6356C12.5022 27.5956 12.4889 25.8044 12.4889 19.8444C12.4889 15.5867 12.5022 12.0889 12.5156 12.0756C12.5733 12.0178 12.7467 12.1644 13.4222 12.84Z" fill="#2B2B2B"/>
</g>
<defs>
<clipPath id="clip0_371_261">
<rect width="40" height="40" fill="white"/>
</clipPath>
</defs>
</svg>
